<svg width="112" height="16" viewBox="0 0 112 16" fill="none" xmlns="http://www.w3.org/2000/svg">
<g clip-path="url(#clip0)">
<path d="M38.7102 5.33398C39.0497 5.33398 39.3406 5.2054 39.5831 4.94617C39.8373 4.67657 39.9633 4.36134 39.9633 4.00049C39.9633 3.63963 39.8431 3.33063 39.6006 3.0714C39.3581 2.80179 39.0613 2.66699 38.7102 2.66699C38.3591 2.66699 38.0603 2.80179 37.8198 3.0714C37.5773 3.33063 37.4551 3.63963 37.4551 4.00049C37.4551 4.36134 37.5773 4.67657 37.8198 4.94617C38.0739 5.2054 38.3707 5.33398 38.7102 5.33398Z" fill="#1E244D"/>
<path d="M19.7716 14.7886C18.922 15.5954 17.8259 15.9998 16.4835 15.9998C15.1411 15.9998 14.047 15.5954 13.1974 14.7886C12.3477 13.9674 11.9229 12.8724 11.9229 11.5016V2.9054H13.9035V11.3709C13.9035 12.1548 14.1149 12.7791 14.5398 13.2457C14.9762 13.7102 15.6241 13.9425 16.4835 13.9425C17.3448 13.9425 17.9869 13.7102 18.4118 13.2457C18.8482 12.7791 19.0655 12.1548 19.0655 11.3709V2.9054H21.0442V11.5016C21.0442 12.8724 20.6193 13.9674 19.7716 14.7886Z" fill="#1E244D"/>
<path d="M32.5335 6.33972C33.5093 6.33972 34.2949 6.67569 34.8924 7.34969C35.488 8.0237 35.7867 8.92998 35.7867 10.0685V15.7613H33.9283V10.1971C33.9283 9.56043 33.7789 9.071 33.4802 8.72674C33.1834 8.37211 32.7741 8.19376 32.2581 8.19376C31.6858 8.19376 31.226 8.39699 30.8827 8.8014C30.549 9.20373 30.3822 9.81137 30.3822 10.6181V15.7613H28.5238V10.1971C28.5238 9.56043 28.3802 9.071 28.0951 8.72674C27.8177 8.37211 27.4219 8.19376 26.9059 8.19376C26.3433 8.19376 25.8855 8.40322 25.5305 8.82006C25.1736 9.22239 24.9951 9.82381 24.9951 10.6181V15.7613H23.1367V6.57822H24.9951V7.67944C25.548 6.78768 26.3666 6.33972 27.4568 6.33972C28.5587 6.33972 29.3734 6.82293 29.9011 7.78935C30.4753 6.82293 31.3521 6.33972 32.5335 6.33972Z" fill="#1E244D"/>
<path d="M37.7754 15.7613H39.6357V6.57825H37.7754V15.7613Z" fill="#1E244D"/>
<path d="M45.8547 15.9998C44.5589 15.9998 43.4745 15.5352 42.6015 14.6041C41.7422 13.6729 41.3115 12.5281 41.3115 11.1697C41.3115 9.79892 41.7422 8.65415 42.6015 7.73543C43.4745 6.80427 44.5589 6.33972 45.8547 6.33972C46.6928 6.33972 47.4551 6.55333 48.1438 6.98262C48.8324 7.40983 49.3485 7.98637 49.6938 8.70807L48.0914 9.70145C47.8974 9.25972 47.5987 8.91753 47.1971 8.67074C46.8072 8.41566 46.3533 8.28708 45.8373 8.28708C45.0807 8.28708 44.4425 8.56083 43.9265 9.11248C43.4221 9.66412 43.1699 10.3485 43.1699 11.1697C43.1699 11.9889 43.4221 12.6754 43.9265 13.227C44.4425 13.7766 45.0807 14.0524 45.8373 14.0524C46.3416 14.0524 46.7956 13.9238 47.1971 13.6667C47.6103 13.4116 47.9207 13.0673 48.1263 12.6401L49.7267 13.6128C49.3601 14.3469 48.8324 14.9276 48.1438 15.3569C47.4551 15.7862 46.6928 15.9998 45.8547 15.9998Z" fill="#1E244D"/>
<path fill-rule="evenodd" clip-rule="evenodd" d="M51.7634 14.6041C52.6461 15.5352 53.7188 15.9998 54.9817 15.9998C56.2542 15.9998 57.327 15.5352 58.1999 14.6041C59.0826 13.6729 59.5249 12.5281 59.5249 11.1697C59.5249 9.81137 59.0826 8.6666 58.1999 7.73543C57.327 6.80427 56.2542 6.33972 54.9817 6.33972C53.7188 6.33972 52.6461 6.80427 51.7634 7.73543C50.8808 8.6666 50.4385 9.81137 50.4385 11.1697C50.4385 12.5281 50.8808 13.6729 51.7634 14.6041ZM54.9817 14.0711C54.2232 14.0711 53.5869 13.7953 53.0709 13.2457C52.5549 12.694 52.2969 12.0034 52.2969 11.1697C52.2969 10.3381 52.5549 9.64546 53.0709 9.09381C53.5869 8.54424 54.2232 8.26841 54.9817 8.26841C55.7382 8.26841 56.3745 8.54424 56.8925 9.09381C57.4085 9.64546 57.6665 10.3381 57.6665 11.1697C57.6665 12.0034 57.4085 12.694 56.8925 13.2457C56.3745 13.7953 55.7382 14.0711 54.9817 14.0711Z" fill="#1E244D"/>
<path d="M0.193988 0C3.77889 0.277898 5.76533 0.271676 9.27652 0C9.27652 0 8.91958 4.16432 9.27652 6.79397C9.34248 7.26681 9.47245 7.99889 9.47245 7.99889H0C0 7.99889 0.129972 7.26681 0.193988 6.79397C0.221147 6.59903 0.244426 6.39372 0.263824 6.18218C0.50049 3.56497 0.193988 0 0.193988 0Z" fill="#F81A5D"/>
<path d="M4.76645 5.46661C5.31932 5.46661 5.76161 5.26544 6.10885 4.91911C6.45803 4.56655 6.64814 4.05431 6.64814 3.46533H5.82369C5.82369 3.8013 5.73058 4.05846 5.55211 4.25755C5.37752 4.45664 5.12145 4.55204 4.76645 4.55204C4.41339 4.55204 4.13987 4.45664 3.95946 4.25755C3.78487 4.05846 3.71116 3.8013 3.71116 3.46533H2.88477C2.88477 4.05431 3.05935 4.56655 3.40853 4.91911C3.75771 5.26544 4.21553 5.46661 4.76645 5.46661Z" fill="white"/>
<path d="M63.2305 3.49658H64.2955L69.0501 10.1537L73.8028 3.49658H74.8678V15.7614H73.6379V5.77368L69.0501 12.2566L64.4604 5.77368V15.7614H63.2305V3.49658Z" fill="#F81A5D"/>
<path d="M82.4841 11.4686L79.7799 11.9932C78.7964 12.1861 78.3056 12.6963 78.3056 13.4844C78.3056 14.1832 78.8779 14.7971 79.9429 14.7971C81.4366 14.7971 82.4841 13.6751 82.4841 11.9932V11.4686ZM82.4841 14.6229C82.3212 14.8676 82.1078 15.0957 81.8614 15.2886C81.4191 15.6204 80.7964 15.9377 79.9429 15.9377C78.3056 15.9377 77.1572 14.71 77.1572 13.4844C77.1572 12.0824 77.9603 11.2052 79.4521 10.9439L82.4841 10.4171C82.4841 9.17279 81.681 8.31421 80.5171 8.31421C79.8129 8.31421 79.2717 8.62944 78.8954 8.92807C78.682 9.12094 78.4841 9.31381 78.3056 9.53986L77.5685 8.7518C77.7799 8.45523 78.0438 8.19185 78.3367 7.96373C78.8449 7.5614 79.551 7.17566 80.5171 7.17566C82.3212 7.17566 83.6326 8.57759 83.6326 10.4171V15.7615H82.4841V14.6229Z" fill="#F81A5D"/>
<path d="M86.0146 7.34986H87.1631V8.49049C87.3415 8.26236 87.5569 8.03424 87.8013 7.84137C88.2436 7.50955 88.8663 7.17566 89.7838 7.17566H90.1117V8.40131H89.6209C88.3095 8.40131 87.1631 9.45276 87.1631 11.1181V15.7614H86.0146V7.34986Z" fill="#F81A5D"/>
<path d="M91.5469 3.49658H92.6953V11.819L96.6274 7.34982H98.0203L94.9902 10.7675L98.3481 15.7614H97.0387L94.2511 11.6448L92.6953 13.3951V15.7614H91.5469V3.49658Z" fill="#F81A5D"/>
<path d="M105.237 10.9439C105.057 9.45276 104.007 8.31421 102.614 8.31421C101.206 8.31421 100.091 9.53986 99.9101 10.9439H105.237ZM105.974 14.1832C105.745 14.5171 105.466 14.7971 105.14 15.0605C104.566 15.4981 103.763 15.9357 102.696 15.9357C100.55 15.9357 98.7637 14.009 98.7637 11.5557C98.7637 9.10228 100.566 7.17566 102.614 7.17566C104.762 7.17566 106.385 8.92807 106.385 11.3815C106.385 11.5743 106.352 11.7133 106.335 11.8356L106.302 12.0119L99.9101 11.9932C99.9916 13.4844 101.206 14.7971 102.696 14.7971C103.532 14.7971 104.139 14.4466 104.581 14.0961C104.828 13.8867 105.057 13.6586 105.237 13.3952L105.974 14.1832Z" fill="#F81A5D"/>
<path d="M108.722 8.49039H107.246V7.34976H108.148C108.59 7.34976 108.804 7.0532 108.804 6.47459V4.5459H109.869V7.34976H111.589V8.49039H109.869V13.4822C109.869 14.3781 110.278 14.797 110.934 14.797C111.213 14.797 111.491 14.7452 111.688 14.6746C111.803 14.6228 111.917 14.5875 112.001 14.5357V15.6742C111.902 15.7261 111.787 15.7613 111.671 15.8132C111.475 15.8837 111.196 15.9356 110.885 15.9356C109.525 15.9356 108.722 15.079 108.722 13.4822V8.49039Z" fill="#F81A5D"/>
</g>
<defs>
<clipPath id="clip0">
<rect width="112" height="16" fill="white"/>
</clipPath>
</defs>
</svg>
